<svg width="51" height="51" viewBox="0 0 51 51" fill="none" xmlns="http://www.w3.org/2000/svg">
<rect x="2.51221" width="48" height="48" rx="12" transform="rotate(3 2.51221 0)" fill="url(#paint0_linear_5_438)"/>
<path d="M23.3387 37.2973L14.864 31.815C14.4807 31.5655 14.1897 31.2477 13.9908 30.8618C13.792 30.4758 13.7046 30.054 13.7286 29.5963L14.2487 19.6724C14.2727 19.2147 14.4037 18.8043 14.6418 18.4413C14.8798 18.0783 15.2025 17.7927 15.6098 17.5845L24.6111 13.0181C25.0184 12.81 25.4405 12.7174 25.8774 12.7403C26.3143 12.7632 26.7244 12.8994 27.1077 13.149L35.5824 18.6313C35.9657 18.8808 36.2568 19.1986 36.4556 19.5845C36.6544 19.9705 36.7418 20.3923 36.7178 20.85L36.1978 30.7739C36.1738 31.2316 36.0427 31.6419 35.8047 32.005C35.5666 32.368 35.2439 32.6536 34.8366 32.8617L25.8353 37.4282C25.428 37.6363 25.0059 37.7289 24.569 37.706C24.1321 37.6831 23.722 37.5469 23.3387 37.2973ZM23.9373 25.8755L23.4892 34.4263L24.6998 35.2094L25.9858 34.5571L26.4339 26.0063L34.1509 22.0611L34.2196 20.7503L32.9186 19.8998L25.2984 23.7876L18.1264 19.1246L16.7436 19.8345L16.6749 21.1452L23.9373 25.8755Z" fill="#000C9F"/>
<defs>
<linearGradient id="paint0_linear_5_438" x1="2.51221" y1="0" x2="50.5122" y2="48" gradientUnits="userSpaceOnUse">
<stop stop-color="#9FA7FF"/>
<stop offset="1" stop-color="#8E98FF"/>
</linearGradient>
</defs>
</svg>
