<?xml version="1.0" encoding="UTF-8"?>
<svg version="1.1" xmlns="http://www.w3.org/2000/svg" width="51" height="51">
<path d="M0 0 C1.26328125 0.02707031 2.5265625 0.05414062 3.828125 0.08203125 C17.52928149 0.52818235 17.52928149 0.52818235 23.66796875 5.84375 C25.93781653 10.01354444 25.72506542 13.58192523 25.5625 18.25 C25.54413086 19.13768066 25.52576172 20.02536133 25.50683594 20.93994141 C25.44355093 23.54454451 25.34926204 26.14655722 25.25 28.75 C25.21777344 30.06742188 25.18554688 31.38484375 25.15234375 32.7421875 C24.87558311 38.88769296 24.56438476 43.18907897 20.25 47.75 C17.37074001 49.49451499 15.25489415 49.99904804 11.90625 49.98046875 C11.07754395 49.97950195 10.24883789 49.97853516 9.39501953 49.97753906 C8.52216309 49.96432617 7.64930664 49.95111328 6.75 49.9375 C5.85522949 49.9281543 4.96045898 49.91880859 4.03857422 49.90917969 C1.44172855 49.87258457 -1.1537509 49.81597112 -3.75 49.75 C-4.99523437 49.72035156 -6.24046875 49.69070312 -7.5234375 49.66015625 C-13.31194119 49.36125367 -17.319214 48.83995631 -21.75 44.75 C-24.67881547 40.77200458 -25.09450169 38.06090588 -24.9296875 33.1640625 C-24.8884375 31.90335938 -24.8471875 30.64265625 -24.8046875 29.34375 C-24.74539062 28.0340625 -24.68609375 26.724375 -24.625 25.375 C-24.58890625 24.07304687 -24.5528125 22.77109375 -24.515625 21.4296875 C-23.9462773 6.74650997 -23.9462773 6.74650997 -18.75 1.875 C-12.93218504 -1.39752092 -6.45355101 -0.21468466 0 0 Z " fill="#959EFE" transform="translate(24.75,0.25)"/>
<path d="M0 0 C3.62920061 2.33061659 5.4382824 3.98981959 6.625 8.2265625 C6.90627645 11.89994894 6.82617208 14.61126181 5.76171875 18.14453125 C2.84776745 21.18751361 -0.19956709 22.95739406 -4.23828125 24.14453125 C-9.07457159 23.62243172 -13.22453918 20.87482737 -16.23828125 17.14453125 C-17.47989729 12.88339826 -17.51697646 9.39909894 -16.23828125 5.14453125 C-11.89455889 0.21677899 -6.38762994 -2.44134548 0 0 Z " fill="#0612A3" transform="translate(30.23828125,13.85546875)"/>
<path d="M0 0 C2.60433993 1.38133753 5.00458635 2.81482079 7 5 C7 6.32 7 7.64 7 9 C0.25 13 0.25 13 -2 13 C-2 15.97 -2 18.94 -2 22 C-2.66 22 -3.32 22 -4 22 C-3.99097656 21.39671875 -3.98195313 20.7934375 -3.97265625 20.171875 C-4.06751913 17.61470177 -4.25666039 15.45386542 -5 13 C-7.22610045 10.96119166 -9.16328604 10.1862622 -12 9 C-12 7.35 -12 5.7 -12 4 C-4.14031052 -0.93156987 -4.14031052 -0.93156987 0 0 Z " fill="#0612A3" transform="translate(28,13)"/>
<path d="M0 0 C4.80745342 1.86956522 4.80745342 1.86956522 6.9375 3.3125 C9.20816137 4.32587024 9.20816137 4.32587024 12.125 2.625 C13.07375 2.08875 14.0225 1.5525 15 1 C15.66 1 16.32 1 17 1 C15.74874616 4.75376152 14.4347596 5.24073289 11 7 C10.34 7 9.68 7 9 7 C9 9.97 9 12.94 9 16 C8.34 16 7.68 16 7 16 C6.99742188 15.39671875 6.99484375 14.7934375 6.9921875 14.171875 C6.87043536 11.65566402 6.66912111 9.43240251 6 7 C3.06057006 4.59478763 3.06057006 4.59478763 0 3 C0 2.01 0 1.02 0 0 Z " fill="#8C96F9" transform="translate(17,19)"/>
<path d="M0 0 C2.4375 0.75 2.4375 0.75 5 2 C5.8125 4.125 5.8125 4.125 6 6 C4.02 5.01 2.04 4.02 0 3 C0 2.01 0 1.02 0 0 Z " fill="#828CF1" transform="translate(17,19)"/>
</svg>
